<svg id="Capa_1" data-name="Capa 1" xmlns="http://www.w3.org/2000/svg" viewBox="0 0 89.76 89.76"><defs><style>.cls-1{fill:#29abe2;}.cls-2{fill:#f5f1e6;}</style></defs><path d="M47.11,67.48a1.69,1.69,0,0,1-1.2-.5l-22.8-22.8a1.7,1.7,0,0,1-.38-1.82A64.85,64.85,0,0,1,37.31,20.08,66,66,0,0,1,87.51,1a1.7,1.7,0,0,1,1.6,1.6A66.07,66.07,0,0,1,70,52.78,64.8,64.8,0,0,1,47.73,67.36,1.67,1.67,0,0,1,47.11,67.48ZM26.31,42.57,47.52,63.79A61.36,61.36,0,0,0,67.61,50.38,62.62,62.62,0,0,0,85.78,4.31,62.7,62.7,0,0,0,39.71,22.49,61.24,61.24,0,0,0,26.31,42.57Z"/><path d="M19,82.8a35.57,35.57,0,0,1-9.22-1.28,1.71,1.71,0,0,1-1.2-1.2C5.82,70.08,7.54,60.85,13.3,55a21,21,0,0,1,8.41-4.93,1.69,1.69,0,0,1,2.13,1.12,1.71,1.71,0,0,1-1.12,2.13,17.58,17.58,0,0,0-7,4.1C11,62.18,9.53,69.83,11.61,78.48c8.65,2.09,16.31.61,21.11-4.11a17.51,17.51,0,0,0,4.07-7,1.68,1.68,0,0,1,2.13-1.12A1.7,1.7,0,0,1,40,68.38a21.08,21.08,0,0,1-4.9,8.38C31.09,80.74,25.45,82.8,19,82.8Z"/><path d="M2.92,47.68a1.7,1.7,0,0,1-1.5-2.51c10.92-20,24.38-29.55,40.32-28.38a1.69,1.69,0,0,1,1.57,1.81,1.65,1.65,0,0,1-1.82,1.58c-12.89-.93-24.25,6.16-33.82,21.1a21.53,21.53,0,0,1,17.3.13,1.7,1.7,0,0,1-1.31,3.14c-6.84-2.87-13.3-1.95-19.73,2.8A1.72,1.72,0,0,1,2.92,47.68Z"/><path d="M44.11,88.88a1.69,1.69,0,0,1-1.36-2.71c4.75-6.43,5.66-12.88,2.8-19.73a1.7,1.7,0,1,1,3.13-1.31,21.53,21.53,0,0,1,.14,17.3c14.92-9.57,22-20.93,21.2-33.84a1.7,1.7,0,0,1,1.58-1.81,1.68,1.68,0,0,1,1.81,1.59c1,15.85-8.54,29.41-28.48,40.3A1.72,1.72,0,0,1,44.11,88.88Z"/><path class="cls-1" d="M65.17,35.26a10.21,10.21,0,0,1-7.26-3,10.38,10.38,0,0,1,0-14.7,10,10,0,0,1,7.19-3h.08a10.39,10.39,0,0,1,7.33,17.75A10.49,10.49,0,0,1,65.17,35.26Zm0-17.33h-.06a6.73,6.73,0,0,0-4.79,2,7,7,0,1,0,9.78,0A6.93,6.93,0,0,0,65.18,17.93Z"/><path d="M21.73,74.36a18.24,18.24,0,0,1-4.21-.53,1.69,1.69,0,0,1-1.26-1.26c-1.19-5-.32-9.32,2.45-12.09a9.82,9.82,0,0,1,5.21-2.67,1.7,1.7,0,1,1,.59,3.35,6.4,6.4,0,0,0-3.4,1.72C19,65,18.9,68.17,19.35,70.74c2.58.45,5.71.39,7.86-1.76a6.38,6.38,0,0,0,1.73-3.39,1.7,1.7,0,1,1,3.35.59,9.82,9.82,0,0,1-2.67,5.2A10.82,10.82,0,0,1,21.73,74.36Z"/><path d="M56.31,54.28a1.66,1.66,0,0,1-1.2-.5L36.31,35a1.7,1.7,0,0,1,2.41-2.4l18.8,18.8a1.7,1.7,0,0,1-1.21,2.9Z"/><path d="M45.71,54.88a1.66,1.66,0,0,1-1.2-.5l-8.8-8.8a1.7,1.7,0,1,1,2.41-2.4L46.91,52a1.68,1.68,0,0,1,0,2.4A1.65,1.65,0,0,1,45.71,54.88Z"/><circle class="cls-1" cx="66.43" cy="25.28" r="10.75"/><circle class="cls-2" cx="66.43" cy="25.28" r="4.13"/></svg>