<svg xmlns="http://www.w3.org/2000/svg" xmlns:xlink="http://www.w3.org/1999/xlink" viewBox="0 0 1305 712"><defs><style>.cls-1{isolation:isolate;}.cls-10,.cls-11,.cls-12,.cls-13,.cls-14,.cls-15,.cls-16,.cls-17,.cls-18,.cls-19,.cls-2,.cls-20,.cls-21,.cls-22,.cls-23,.cls-24,.cls-25,.cls-26,.cls-27,.cls-28,.cls-29,.cls-3,.cls-4,.cls-5,.cls-7,.cls-8,.cls-9{mix-blend-mode:screen;}.cls-17,.cls-2{opacity:0.25;}.cls-2{fill:url(#radial-gradient);}.cls-3{fill:url(#radial-gradient-2);}.cls-4{fill:url(#radial-gradient-3);}.cls-20,.cls-5{opacity:0.2;}.cls-5{fill:url(#radial-gradient-4);}.cls-10,.cls-6{fill:none;}.cls-21,.cls-7{opacity:0.15;}.cls-7{fill:url(#radial-gradient-5);}.cls-11,.cls-22,.cls-24,.cls-8{opacity:0.5;}.cls-8{fill:url(#radial-gradient-6);}.cls-9{fill:url(#radial-gradient-7);}.cls-10{stroke:#fff;stroke-miterlimit:10;stroke-width:11.93px;opacity:0.03;}.cls-11{fill:url(#radial-gradient-8);}.cls-12{fill:url(#radial-gradient-9);}.cls-13{fill:url(#radial-gradient-10);}.cls-14{fill:url(#radial-gradient-11);}.cls-15{fill:url(#radial-gradient-12);}.cls-16{fill:url(#radial-gradient-13);}.cls-17{fill:url(#radial-gradient-14);}.cls-18{fill:url(#radial-gradient-15);}.cls-19{fill:url(#radial-gradient-16);}.cls-20{fill:url(#radial-gradient-17);}.cls-21{fill:url(#radial-gradient-18);}.cls-22{fill:url(#radial-gradient-19);}.cls-23{fill:url(#radial-gradient-20);}.cls-24{fill:url(#radial-gradient-21);}.cls-25{fill:url(#radial-gradient-22);}.cls-26{fill:url(#radial-gradient-23);}.cls-27{fill:url(#radial-gradient-24);}.cls-28{fill:url(#radial-gradient-25);}.cls-29{fill:url(#radial-gradient-26);}</style><radialGradient id="radial-gradient" cx="8357.12" cy="558.07" r="133.81" gradientTransform="translate(9139.85 1676.56) rotate(-175.06)" gradientUnits="userSpaceOnUse"><stop offset="0.1"/><stop offset="0.15" stop-color="#191407"/><stop offset="0.21" stop-color="#2f260d"/><stop offset="0.27" stop-color="#403312"/><stop offset="0.36" stop-color="#4b3d16"/><stop offset="0.47" stop-color="#524217"/><stop offset="0.8" stop-color="#544418"/><stop offset="1"/></radialGradient><radialGradient id="radial-gradient-2" cx="8219.22" cy="650.58" r="4.46" gradientTransform="translate(9139.85 1676.56) rotate(-175.06)" gradientUnits="userSpaceOnUse"><stop offset="0" stop-color="#cae095"/><stop offset="0.06" stop-color="#a8ba7c"/><stop offset="0.14" stop-color="#818f5f"/><stop offset="0.22" stop-color="#5e6845"/><stop offset="0.31" stop-color="#414830"/><stop offset="0.4" stop-color="#292e1e"/><stop offset="0.5" stop-color="#171911"/><stop offset="0.62" stop-color="#0a0b07"/><stop offset="0.76" stop-color="#020302"/><stop offset="1"/></radialGradient><radialGradient id="radial-gradient-3" cx="8049.08" cy="764.71" r="4.46" xlink:href="#radial-gradient-2"/><radialGradient id="radial-gradient-4" cx="8061.4" cy="756.44" r="33.45" gradientTransform="translate(9139.85 1676.56) rotate(-175.06)" gradientUnits="userSpaceOnUse"><stop offset="0.05"/><stop offset="0.09" stop-color="#030904"/><stop offset="0.3" stop-color="#133315"/><stop offset="0.48" stop-color="#1f5222"/><stop offset="0.64" stop-color="#256529"/><stop offset="0.75" stop-color="#286c2c"/><stop offset="0.79" stop-color="#4c6c19"/><stop offset="0.84" stop-color="#6e6b07"/><stop offset="0.86" stop-color="#7b6b00"/><stop offset="0.89" stop-color="#776800"/><stop offset="0.91" stop-color="#6d5e00"/><stop offset="0.94" stop-color="#5a4f00"/><stop offset="0.96" stop-color="#413800"/><stop offset="0.98" stop-color="#201c00"/><stop offset="1"/></radialGradient><radialGradient id="radial-gradient-5" cx="8295.51" cy="599.4" r="89.2" gradientTransform="translate(9139.85 1676.56) rotate(-175.06)" gradientUnits="userSpaceOnUse"><stop offset="0" stop-color="#230000"/><stop offset="0.73" stop-color="#93432a"/><stop offset="1" stop-color="#230000"/></radialGradient><radialGradient id="radial-gradient-6" cx="8295.51" cy="599.4" r="44.6" gradientTransform="translate(9139.85 1676.56) rotate(-175.06)" gradientUnits="userSpaceOnUse"><stop offset="0.15" stop-color="#fff"/><stop offset="0.21" stop-color="#e2d1d2"/><stop offset="0.29" stop-color="#bf9a9c"/><stop offset="0.36" stop-color="#a67276"/><stop offset="0.42" stop-color="#975a5e"/><stop offset="0.45" stop-color="#915155"/><stop offset="0.56" stop-color="#6c3638"/><stop offset="0.68" stop-color="#44191a"/><stop offset="0.79" stop-color="#2c0707"/><stop offset="0.85" stop-color="#230000"/><stop offset="0.86" stop-color="#270201"/><stop offset="0.86" stop-color="#340805"/><stop offset="0.87" stop-color="#48120b"/><stop offset="0.88" stop-color="#652114"/><stop offset="0.89" stop-color="#8b331f"/><stop offset="0.9" stop-color="#b8492d"/><stop offset="0.9" stop-color="#d65836"/><stop offset="0.9" stop-color="#c95232"/><stop offset="0.91" stop-color="#9d3c25"/><stop offset="0.93" stop-color="#782a1a"/><stop offset="0.94" stop-color="#591b10"/><stop offset="0.95" stop-color="#410f09"/><stop offset="0.97" stop-color="#300604"/><stop offset="0.98" stop-color="#260201"/><stop offset="1" stop-color="#230000"/></radialGradient><radialGradient id="radial-gradient-7" cx="8295.51" cy="599.39" r="37.17" gradientTransform="translate(9139.85 1676.56) rotate(-175.06)" gradientUnits="userSpaceOnUse"><stop offset="0.15" stop-color="#fff"/><stop offset="0.28" stop-color="#c2c2c2"/><stop offset="0.43" stop-color="#888"/><stop offset="0.56" stop-color="#575757"/><stop offset="0.69" stop-color="#313131"/><stop offset="0.81" stop-color="#161616"/><stop offset="0.92" stop-color="#060606"/><stop offset="1"/></radialGradient><radialGradient id="radial-gradient-8" cx="8049.08" cy="764.71" r="66.91" gradientTransform="translate(9139.85 1676.56) rotate(-175.06)" gradientUnits="userSpaceOnUse"><stop offset="0.64"/><stop offset="0.72" stop-color="#000200"/><stop offset="0.75" stop-color="#000902"/><stop offset="0.77" stop-color="#001405"/><stop offset="0.78" stop-color="#002509"/><stop offset="0.8" stop-color="#003b0e"/><stop offset="0.8" stop-color="#004510"/><stop offset="0.82" stop-color="#182809"/><stop offset="0.83" stop-color="#2b1204"/><stop offset="0.85" stop-color="#360501"/><stop offset="0.86" stop-color="#3a0000"/><stop offset="0.87" stop-color="#250000"/><stop offset="0.89" stop-color="#140000"/><stop offset="0.9" stop-color="#090000"/><stop offset="0.93" stop-color="#020000"/><stop offset="1"/></radialGradient><radialGradient id="radial-gradient-9" cx="8116.46" cy="719.51" r="9.57" gradientTransform="translate(9139.85 1676.56) rotate(-175.06)" gradientUnits="userSpaceOnUse"><stop offset="0.1"/><stop offset="0.24" stop-color="#281e0a"/><stop offset="0.38" stop-color="#4a3813"/><stop offset="0.53" stop-color="#654c1a"/><stop offset="0.68" stop-color="#785a1f"/><stop offset="0.84" stop-color="#836222"/><stop offset="1" stop-color="#876523"/></radialGradient><radialGradient id="radial-gradient-10" cx="8127.27" cy="712.26" r="4.06" gradientTransform="translate(9139.85 1676.56) rotate(-175.06)" gradientUnits="userSpaceOnUse"><stop offset="0.1" stop-color="#aa9a43"/><stop offset="0.19" stop-color="#897c36"/><stop offset="0.32" stop-color="#5f5626"/><stop offset="0.45" stop-color="#3d3718"/><stop offset="0.58" stop-color="#221f0d"/><stop offset="0.71" stop-color="#0f0e06"/><stop offset="0.85" stop-color="#040301"/><stop offset="1"/></radialGradient><radialGradient id="radial-gradient-11" cx="8058.44" cy="758.42" r="6.41" gradientTransform="translate(9139.85 1676.56) rotate(-175.06)" gradientUnits="userSpaceOnUse"><stop offset="0.1" stop-color="#5d4a6d"/><stop offset="0.16" stop-color="#51405f"/><stop offset="0.32" stop-color="#34293d"/><stop offset="0.48" stop-color="#1d1722"/><stop offset="0.65" stop-color="#0d0a0f"/><stop offset="0.82" stop-color="#030304"/><stop offset="1"/></radialGradient><radialGradient id="radial-gradient-12" cx="8141.35" cy="702.81" r="21.68" xlink:href="#radial-gradient-11"/><radialGradient id="radial-gradient-13" cx="8229.77" cy="643.5" r="7.25" gradientTransform="translate(9139.85 1676.56) rotate(-175.06)" gradientUnits="userSpaceOnUse"><stop offset="0.1" stop-color="#150000"/><stop offset="0.23" stop-color="#0f0000"/><stop offset="0.6" stop-color="#040000"/><stop offset="1"/></radialGradient><radialGradient id="radial-gradient-14" cx="1961.69" cy="4235.76" r="202.06" gradientTransform="translate(2825.05 -3758.88) rotate(52.15)" xlink:href="#radial-gradient"/><radialGradient id="radial-gradient-15" cx="1753.44" cy="4375.46" r="6.73" gradientTransform="translate(2825.05 -3758.88) rotate(52.15)" xlink:href="#radial-gradient-2"/><radialGradient id="radial-gradient-16" cx="1496.52" cy="4547.8" r="6.74" gradientTransform="translate(2825.05 -3758.88) rotate(52.15)" xlink:href="#radial-gradient-2"/><radialGradient id="radial-gradient-17" cx="1515.13" cy="4535.32" r="50.52" gradientTransform="translate(2825.05 -3758.88) rotate(52.15)" xlink:href="#radial-gradient-4"/><radialGradient id="radial-gradient-18" cx="1868.66" cy="4298.17" r="134.7" gradientTransform="translate(2825.05 -3758.88) rotate(52.15)" xlink:href="#radial-gradient-5"/><radialGradient id="radial-gradient-19" cx="1868.65" cy="4298.17" r="67.35" gradientTransform="translate(2825.05 -3758.88) rotate(52.15)" xlink:href="#radial-gradient-6"/><radialGradient id="radial-gradient-20" cx="1868.65" cy="4298.17" r="56.12" gradientTransform="translate(2825.05 -3758.88) rotate(52.15)" xlink:href="#radial-gradient-7"/><radialGradient id="radial-gradient-21" cx="1496.52" cy="4547.8" r="101.03" gradientTransform="translate(2825.05 -3758.88) rotate(52.15)" xlink:href="#radial-gradient-8"/><radialGradient id="radial-gradient-22" cx="1598.27" cy="4479.55" r="14.45" gradientTransform="translate(2825.05 -3758.88) rotate(52.15)" xlink:href="#radial-gradient-9"/><radialGradient id="radial-gradient-23" cx="1614.6" cy="4468.6" r="6.13" gradientTransform="translate(2825.05 -3758.88) rotate(52.15)" xlink:href="#radial-gradient-10"/><radialGradient id="radial-gradient-24" cx="1510.66" cy="4538.32" r="9.68" gradientTransform="translate(2825.05 -3758.88) rotate(52.15)" xlink:href="#radial-gradient-11"/><radialGradient id="radial-gradient-25" cx="1635.86" cy="4454.33" r="32.74" gradientTransform="translate(2825.05 -3758.88) rotate(52.15)" xlink:href="#radial-gradient-11"/><radialGradient id="radial-gradient-26" cx="1769.37" cy="4364.77" r="10.95" gradientTransform="translate(2825.05 -3758.88) rotate(52.15)" xlink:href="#radial-gradient-13"/></defs><g class="cls-1"><g id="Capa_1" data-name="Capa 1"><path class="cls-2" d="M995.24,412.52a133.81,133.81,0,1,0-144.83,121.8A133.81,133.81,0,0,0,995.24,412.52Z"/><path class="cls-3" d="M1011.72,321.1a4.46,4.46,0,1,0-4.82,4.06A4.45,4.45,0,0,0,1011.72,321.1Z"/><path class="cls-4" d="M1191.06,222.05a4.46,4.46,0,1,0-4.83,4.06A4.46,4.46,0,0,0,1191.06,222.05Z"/><path class="cls-5" d="M1207,231.71a33.45,33.45,0,1,0-36.21,30.46A33.45,33.45,0,0,0,1207,231.71Z"/><line class="cls-6" x1="926.86" y1="365.14" x2="1186.61" y2="221.66"/><path class="cls-7" d="M1015.73,372.82A89.2,89.2,0,1,0,919.19,454,89.2,89.2,0,0,0,1015.73,372.82Z"/><path class="cls-8" d="M971.3,369A44.6,44.6,0,1,0,923,409.57,44.61,44.61,0,0,0,971.3,369Z"/><path class="cls-9" d="M963.89,368.34a37.16,37.16,0,1,0-40.22,33.83A37.17,37.17,0,0,0,963.89,368.34Z"/><polyline class="cls-10" points="926.86 365.14 1033.91 315.25 926.86 365.14 819.82 415.03 926.86 365.14 976.75 472.18 926.86 365.14 876.97 258.09 926.86 365.14 958.79 360.88 926.86 365.14 894.93 369.4 926.86 365.14 931.13 397.07 926.86 365.14 922.6 333.21 926.86 365.14 980.95 219.78 926.86 365.14 872.78 510.49 926.86 365.14 1072.22 419.22 926.86 365.14 781.51 311.05 926.86 365.14 1014.95 273.06 926.86 365.14 838.78 457.21 926.86 365.14 1018.94 453.22 926.86 365.14 834.79 277.06 926.86 365.14 927.74 358.69 926.86 365.14 925.99 371.58 926.86 365.14 933.31 366.01 926.86 365.14 920.42 364.27 926.86 365.14 1036.89 318.06 926.86 365.14 816.83 412.21 926.86 365.14 973.94 475.17 926.86 365.14 879.79 255.11 926.86 365.14 930.09 325.83 926.86 365.14 923.63 404.44 926.86 365.14 966.17 368.37 926.86 365.14 887.56 361.91 926.86 365.14 1063.05 354.93 926.86 365.14 790.67 375.35 926.86 365.14 937.07 501.32 926.86 365.14 916.65 228.95 926.86 365.14 1025.2 208.25 926.86 365.14 828.53 522.02 926.86 365.14 1083.75 463.47 926.86 365.14 769.98 266.81 926.86 365.14 968.78 307.82 926.86 365.14 884.95 422.46 926.86 365.14 984.18 407.05 926.86 365.14 869.54 323.23 926.86 365.14 962.25 154.65 926.86 365.14 891.48 575.63 926.86 365.14 1137.36 400.52 926.86 365.14 716.37 329.75 926.86 365.14 1057.33 225.54 926.86 365.14 796.4 504.74 926.86 365.14 1066.47 495.6 926.86 365.14 787.26 234.68 926.86 365.14 1083.84 242.08 926.86 365.14 769.89 488.19 926.86 365.14 1049.92 522.11 926.86 365.14 803.81 208.17 926.86 365.14 931.77 345.04 926.86 365.14 921.97 385.24 926.86 365.14 946.96 370.04 926.86 365.14 906.76 360.24 926.86 365.14 1013.42 280.99 926.86 365.14 840.31 449.29 926.86 365.14 1011.01 451.69 926.86 365.14 842.72 278.58"/><path class="cls-11" d="M1253.27,227.42a66.91,66.91,0,1,0-72.42,60.9A66.92,66.92,0,0,0,1253.27,227.42Z"/><path class="cls-12" d="M1125.13,261.71a9.57,9.57,0,1,0-10.36,8.71A9.56,9.56,0,0,0,1125.13,261.71Z"/><path class="cls-13" d="M1108.25,267.53a4.07,4.07,0,1,0-4.4,3.7A4.06,4.06,0,0,0,1108.25,267.53Z"/><path class="cls-14" d="M1183.12,227.66a6.4,6.4,0,1,0-6.93,5.84A6.4,6.4,0,0,0,1183.12,227.66Z"/><path class="cls-15" d="M1111,277.25A21.69,21.69,0,1,0,1087.49,297,21.69,21.69,0,0,0,1111,277.25Z"/><path class="cls-16" d="M1003.39,327.48a7.25,7.25,0,1,0-7.85,6.61A7.26,7.26,0,0,0,1003.39,327.48Z"/><path class="cls-17" d="M560.19,229.59c-88.11,68.48-104,195.43-35.56,283.54s195.43,104,283.54,35.55,104-195.42,35.56-283.53S648.31,161.11,560.19,229.59Z"/><path class="cls-18" d="M442,305.11a6.73,6.73,0,1,0,9.45,1.18A6.73,6.73,0,0,0,442,305.11Z"/><path class="cls-19" d="M148.24,208a6.73,6.73,0,1,0,9.45,1.19A6.73,6.73,0,0,0,148.24,208Z"/><path class="cls-20" d="M142.64,180.46a50.52,50.52,0,1,0,70.89,8.89A50.52,50.52,0,0,0,142.64,180.46Z"/><line class="cls-6" x1="577.82" y1="353.97" x2="152.37" y2="213.31"/><path class="cls-21" d="M495.16,247.62a134.7,134.7,0,1,0,189,23.7A134.7,134.7,0,0,0,495.16,247.62Z"/><path class="cls-22" d="M536.49,300.79A67.35,67.35,0,1,0,631,312.65,67.36,67.36,0,0,0,536.49,300.79Z"/><path class="cls-23" d="M543.38,309.65a56.13,56.13,0,1,0,78.75,9.88A56.13,56.13,0,0,0,543.38,309.65Z"/><polyline class="cls-10" points="577.82 353.97 412.73 286.53 577.82 353.97 742.92 421.42 577.82 353.97 645.26 188.88 577.82 353.97 510.37 519.07 577.82 353.97 540.34 322.96 577.82 353.97 615.3 384.98 577.82 353.97 608.83 316.49 577.82 353.97 546.81 391.45 577.82 353.97 361.26 443.15 577.82 353.97 794.38 264.8 577.82 353.97 488.64 137.41 577.82 353.97 666.99 570.53 577.82 353.97 385.42 350.82 577.82 353.97 770.21 357.13 577.82 353.97 580.98 161.58 577.82 353.97 574.66 546.36 577.82 353.97 569.78 359.62 577.82 353.97 585.85 348.33 577.82 353.97 572.17 345.94 577.82 353.97 583.46 362.01 577.82 353.97 412.78 280.33 577.82 353.97 742.86 427.61 577.82 353.97 651.46 188.94 577.82 353.97 504.18 519.01 577.82 353.97 530.95 390.71 577.82 353.97 624.69 317.23 577.82 353.97 541.08 307.11 577.82 353.97 614.56 400.84 577.82 353.97 426.8 213.53 577.82 353.97 728.84 494.42 577.82 353.97 718.26 202.96 577.82 353.97 437.37 504.99 577.82 353.97 303.09 405.94 577.82 353.97 852.55 302 577.82 353.97 525.85 79.25 577.82 353.97 629.79 628.7 577.82 353.97 471.31 366.33 577.82 353.97 684.33 341.62 577.82 353.97 565.46 247.46 577.82 353.97 590.17 460.49 577.82 353.97 308.26 530.69 577.82 353.97 847.37 177.25 577.82 353.97 401.1 84.42 577.82 353.97 754.54 623.53 577.82 353.97 289.28 352.61 577.82 353.97 866.35 355.34 577.82 353.97 579.18 65.44 577.82 353.97 576.45 642.51 577.82 353.97 280.43 306.25 577.82 353.97 875.21 401.7 577.82 353.97 625.54 56.58 577.82 353.97 530.1 651.36 577.82 353.97 550.51 369.16 577.82 353.97 605.12 338.78 577.82 353.97 562.63 326.67 577.82 353.97 593.01 381.27 577.82 353.97 395.78 344.38 577.82 353.97 759.86 363.57 577.82 353.97 587.41 171.93 577.82 353.97 568.22 536.02"/><path class="cls-24" d="M90.37,133.54a101,101,0,1,0,141.77,17.77A101,101,0,0,0,90.37,133.54Z"/><path class="cls-25" d="M259.82,240.36a14.45,14.45,0,1,0,20.28,2.55A14.45,14.45,0,0,0,259.82,240.36Z"/><path class="cls-26" d="M283.59,253.1a6.14,6.14,0,1,0,8.61,1.08A6.13,6.13,0,0,0,283.59,253.1Z"/><path class="cls-27" d="M162.6,211a9.67,9.67,0,1,0,13.58,1.7A9.68,9.68,0,0,0,162.6,211Z"/><path class="cls-28" d="M291.58,240.13a32.74,32.74,0,1,0,45.94,5.75A32.74,32.74,0,0,0,291.58,240.13Z"/><path class="cls-29" d="M457.59,307.8A10.95,10.95,0,1,0,473,309.72,11,11,0,0,0,457.59,307.8Z"/></g></g></svg>