<svg id="Capa_1" data-name="Capa 1" xmlns="http://www.w3.org/2000/svg" xmlns:xlink="http://www.w3.org/1999/xlink" viewBox="0 0 224.96 25.07"><defs><style>.cls-1{mask:url(#mask);filter:url(#luminosity-noclip-2);}.cls-2{mix-blend-mode:multiply;fill:url(#linear-gradient);}.cls-3{fill:url(#linear-gradient-2);}.cls-4{mask:url(#mask-2);}.cls-5{opacity:0.5;fill:url(#linear-gradient-3);}.cls-6{filter:url(#luminosity-noclip);}</style><filter id="luminosity-noclip" x="17.31" y="-8031.02" width="169.02" height="32766" filterUnits="userSpaceOnUse" color-interpolation-filters="sRGB"><feFlood flood-color="#fff" result="bg"/><feBlend in="SourceGraphic" in2="bg"/></filter><mask id="mask" x="17.31" y="-8031.02" width="169.02" height="32766" maskUnits="userSpaceOnUse"><g class="cls-6"/></mask><linearGradient id="linear-gradient" x1="232.41" y1="-2.07" x2="40.36" y2="16.38" gradientUnits="userSpaceOnUse"><stop offset="0" stop-color="#fff"/><stop offset="1"/></linearGradient><linearGradient id="linear-gradient-2" y1="12.53" x2="224.96" y2="12.53" gradientUnits="userSpaceOnUse"><stop offset="0.13" stop-color="#b6d9ff"/><stop offset="0.19" stop-color="#a5d0fa"/><stop offset="0.48" stop-color="#60ace3"/><stop offset="0.72" stop-color="#2d92d3"/><stop offset="0.9" stop-color="#0e82c9"/><stop offset="1" stop-color="#027cc5"/></linearGradient><filter id="luminosity-noclip-2" x="17.31" y="0" width="169.02" height="25.02" filterUnits="userSpaceOnUse" color-interpolation-filters="sRGB"><feFlood flood-color="#fff" result="bg"/><feBlend in="SourceGraphic" in2="bg"/></filter><mask id="mask-2" x="17.31" y="0" width="169.02" height="25.02" maskUnits="userSpaceOnUse"><g class="cls-1"><polygon class="cls-2" points="186.34 0 17.31 0 17.31 25.02 143.98 25.02 186.34 0"/></g></mask><linearGradient id="linear-gradient-3" x1="232.41" y1="-2.07" x2="40.36" y2="16.38" gradientUnits="userSpaceOnUse"><stop offset="0" stop-color="#fff"/><stop offset="1" stop-color="#fff"/></linearGradient></defs><path class="cls-3" d="M13.13,0H212.62A12.33,12.33,0,0,1,225,12.33V25.07a0,0,0,0,1,0,0H3.79A3.79,3.79,0,0,1,0,21.28V13.13A13.13,13.13,0,0,1,13.13,0Z"/><g class="cls-4"><polygon class="cls-5" points="186.34 0 17.31 0 17.31 25.02 143.98 25.02 186.34 0"/></g></svg>