<svg id="Capa_1" data-name="Capa 1" xmlns="http://www.w3.org/2000/svg" viewBox="0 0 24.64 23.57"><defs><style>.cls-1{fill:#242424;stroke:#000;stroke-miterlimit:10;stroke-width:0.5px;}</style></defs><path class="cls-1" d="M21.85,22.78H2.53A1.5,1.5,0,0,1,1,21.29V16.47a.7.7,0,0,1,.7-.71.71.71,0,0,1,.71.71v4.82a.1.1,0,0,0,.11.09H21.85a.1.1,0,0,0,.11-.09V16.47a.71.71,0,0,1,.71-.71.7.7,0,0,1,.7.71v4.82A1.5,1.5,0,0,1,21.85,22.78Z"/><path class="cls-1" d="M12.19,16.12a.7.7,0,0,1-.7-.7V2.49a.7.7,0,1,1,1.4,0V15.42A.7.7,0,0,1,12.19,16.12Z"/><path class="cls-1" d="M12.19,17.52a.67.67,0,0,1-.5-.21l-6-6a.7.7,0,0,1,1-1l5.53,5.53,5.53-5.53a.71.71,0,0,1,1,1l-6,6A.67.67,0,0,1,12.19,17.52Z"/></svg>