<svg xmlns="http://www.w3.org/2000/svg" viewBox="0 0 14.54 13.71"><defs><style>.cls-1{fill:#fff;stroke:#fff;stroke-miterlimit:10;}</style></defs><g id="Layer_2" data-name="Layer 2"><g id="Layer_1-2" data-name="Layer 1"><path class="cls-1" d="M13.12,13.21H1.42a.91.91,0,0,1-.92-.9V9.39a.43.43,0,1,1,.85,0v2.92a.07.07,0,0,0,.07,0h11.7a.06.06,0,0,0,.06,0V9.39a.43.43,0,0,1,.86,0v2.92A.91.91,0,0,1,13.12,13.21Z"/><path class="cls-1" d="M7.27,9.18a.43.43,0,0,1-.43-.43V.93a.43.43,0,1,1,.85,0V8.75A.42.42,0,0,1,7.27,9.18Z"/><path class="cls-1" d="M7.27,10A.42.42,0,0,1,7,9.9L3.32,6.25a.42.42,0,0,1,.6-.6L7.27,9l3.34-3.35a.43.43,0,0,1,.61,0,.43.43,0,0,1,0,.6L7.57,9.9A.42.42,0,0,1,7.27,10Z"/></g></g></svg>