<svg id="Capa_1" data-name="Capa 1" xmlns="http://www.w3.org/2000/svg" xmlns:xlink="http://www.w3.org/1999/xlink" viewBox="0 0 124 81"><defs><style>.cls-1,.cls-9{fill:#fff;}.cls-1,.cls-2,.cls-3,.cls-4,.cls-5,.cls-6,.cls-8{fill-rule:evenodd;}.cls-2{fill:#c2eef8;}.cls-3{fill:#dcf5fc;}.cls-4{fill:url(#radial-gradient);}.cls-5{fill:#ffe2d0;}.cls-6{fill:#ffeee4;}.cls-7{fill:#020202;}.cls-8{fill:#aec90b;}</style><radialGradient id="radial-gradient" cx="36.68" cy="58.61" r="9.29" gradientUnits="userSpaceOnUse"><stop offset="0.24" stop-color="#ffcb00"/><stop offset="0.44" stop-color="#fec700"/><stop offset="0.62" stop-color="#fcbc00"/><stop offset="0.8" stop-color="#f7a900"/><stop offset="0.9" stop-color="#f49b00"/></radialGradient></defs><path class="cls-1" d="M12.87,13.81H101a7.89,7.89,0,0,1,7.78,7.88V69.41A7.87,7.87,0,0,1,101,77.19H12.87a7.87,7.87,0,0,1-7.78-7.78V21.69a7.89,7.89,0,0,1,7.78-7.88Z"/><path class="cls-2" d="M36.68,25.43A20.07,20.07,0,1,1,16.61,45.5,20,20,0,0,1,36.68,25.43Z"/><path class="cls-3" d="M36.68,25.43A18.88,18.88,0,0,1,46.47,28a19.65,19.65,0,0,1,2.4,9.51,20,20,0,0,1-20,20.07A19.08,19.08,0,0,1,19,55a19.65,19.65,0,0,1-2.4-9.51A20.06,20.06,0,0,1,36.68,25.43Z"/><path class="cls-4" d="M36.68,51.64c4.9,0,9.12,4.33,11.14,10.57a20.15,20.15,0,0,1-22.28,0c2-6.24,6.24-10.57,11.14-10.57Z"/><path d="M47.82,63.84a1.65,1.65,0,0,1-1.56-1.13c-1.85-5.73-5.61-9.44-9.58-9.44S29,57,27.09,62.71a1.63,1.63,0,1,1-3.1-1C26.32,54.49,31.18,50,36.68,50S47,54.49,49.37,61.7a1.63,1.63,0,0,1-1,2.06A1.8,1.8,0,0,1,47.82,63.84Z"/><path class="cls-5" d="M36.68,33.59a9.18,9.18,0,0,1,9.12,9.12C45.8,47.8,41.67,54,36.68,54s-9.12-6.15-9.12-11.24a9.12,9.12,0,0,1,9.12-9.12Z"/><path class="cls-6" d="M36.68,33.59a8.52,8.52,0,0,1,5.09,1.63,8.92,8.92,0,0,1,1,4.23c0,5.09-4,11.23-9.12,11.23a6.92,6.92,0,0,1-4.22-1.53,12.49,12.49,0,0,1-1.92-6.44,9.12,9.12,0,0,1,9.12-9.12Z"/><path class="cls-7" d="M36.68,55.58c-6.06,0-10.76-6.92-10.76-12.87a10.76,10.76,0,0,1,21.51,0C47.43,48.66,42.74,55.58,36.68,55.58Zm0-20.36a7.5,7.5,0,0,0-7.49,7.49c0,4.33,3.46,9.61,7.49,9.61s7.49-5.37,7.49-9.61A7.59,7.59,0,0,0,36.68,35.22Z"/><path class="cls-7" d="M36.68,67.2a21.7,21.7,0,1,1,21.6-21.7A21.72,21.72,0,0,1,36.68,67.2Zm0-40.14A18.44,18.44,0,1,0,55,45.5,18.46,18.46,0,0,0,36.68,27.06Z"/><path class="cls-7" d="M79.79,30.71H73.46a1.63,1.63,0,1,1,0-3.26h6.33a1.63,1.63,0,1,1,0,3.26Z"/><path class="cls-7" d="M88.05,41.66h-22a1.64,1.64,0,0,1,0-3.27h22a1.64,1.64,0,0,1,0,3.27Z"/><path class="cls-7" d="M82.39,63.55H66.06a1.63,1.63,0,0,1,0-3.26H82.39a1.63,1.63,0,0,1,0,3.26Z"/><path class="cls-7" d="M98.81,52.6H66.06a1.63,1.63,0,1,1,0-3.26H98.81a1.63,1.63,0,1,1,0,3.26Z"/><path class="cls-8" d="M101.4,38.87A17.62,17.62,0,1,0,83.83,21.3,17.55,17.55,0,0,0,101.4,38.87Z"/><path class="cls-9" d="M99.67,28.69A2,2,0,0,1,98,27.86l-4-5.57a2,2,0,0,1,3.27-2.36l2.36,3.25,5.77-8.4a2,2,0,1,1,3.32,2.29l-7.39,10.75a2,2,0,0,1-1.64.87Z"/><path class="cls-7" d="M101,78.82H12.87a9.54,9.54,0,0,1-9.41-9.41V21.69a9.47,9.47,0,0,1,9.41-9.51H79.5a1.63,1.63,0,0,1,0,3.26H12.87a6.28,6.28,0,0,0-6.15,6.25V69.41a6.23,6.23,0,0,0,6.15,6.14H101a6.23,6.23,0,0,0,6.15-6.14V43.2a1.63,1.63,0,1,1,3.26,0V69.41A9.54,9.54,0,0,1,101,78.82Z"/><path class="cls-7" d="M101.4,40.51A19.26,19.26,0,0,1,101.4,2a19.58,19.58,0,0,1,10.17,2.93,1.63,1.63,0,1,1-1.72,2.78,16.21,16.21,0,0,0-8.45-2.44,16,16,0,1,0,15.84,16,16.81,16.81,0,0,0-3.15-9.71,1.63,1.63,0,0,1,2.65-1.9A20,20,0,0,1,120.5,21.3,19.18,19.18,0,0,1,101.4,40.51Z"/></svg>