<svg id="Capa_1" data-name="Capa 1" xmlns="http://www.w3.org/2000/svg" xmlns:xlink="http://www.w3.org/1999/xlink" viewBox="0 0 116 35"><defs><style>.cls-1{fill:#0075be;}.cls-2{fill:#aec90b;}.cls-3{fill:url(#radial-gradient);}.cls-4{fill:#007440;}.cls-5{fill:#4a4a49;}</style><radialGradient id="radial-gradient" cx="13.99" cy="8.12" r="7.66" gradientUnits="userSpaceOnUse"><stop offset="0.24" stop-color="#ffcb00"/><stop offset="0.44" stop-color="#fec700"/><stop offset="0.62" stop-color="#fcbc00"/><stop offset="0.8" stop-color="#f7a900"/><stop offset="0.9" stop-color="#f49b00"/></radialGradient></defs><path class="cls-1" d="M13.39,27.58a5.5,5.5,0,0,1-.07-1c-.08-2.21,1.35-4.06,3-5.59l-.16-.1a1.18,1.18,0,0,0-.19-.11,2.64,2.64,0,0,0-.29-.15l-.16-.09-.49-.22q-.53-.22-1.05-.42c-1.22-.49-2.42-1-3.55-1.47a11.41,11.41,0,0,1-6.62-6.61A26.22,26.22,0,0,1,3,9.22c-.42-1.71-1.66.63-1.66.63-2.32,5-2.3,11.62,0,17.26C2.8,30.64,5.7,34.86,9.91,34.9A9,9,0,0,0,16.15,32,8.34,8.34,0,0,1,13.39,27.58Z"/><path class="cls-2" d="M31.05,14.76A24,24,0,0,0,28.3,9c-.57-.87-1.12-1.7-1.73-2.55l-.14-.2a9.28,9.28,0,0,0-.86-1c-.17-.17-.53-.54-.79-.42a.4.4,0,0,0-.21.25,1,1,0,0,0,0,.34,8.36,8.36,0,0,0,0,1,16.79,16.79,0,0,1,.05,3.17,13.17,13.17,0,0,1-5.44,9.17c-.87.67-1.89,1.42-2.83,2.28l.06,0,.21.13.17.13.21.16a5.82,5.82,0,0,1,2,3.38A9.15,9.15,0,0,1,16.15,32c3.3,2.92,8.65,4.12,12,1.51l.18-.15a10.5,10.5,0,0,0,3.14-5.17A22.87,22.87,0,0,0,31.05,14.76Z"/><circle class="cls-3" cx="13.99" cy="8.12" r="7.66"/><path class="cls-4" d="M19,24.84a5.82,5.82,0,0,0-2-3.38l-.21-.16-.17-.13L16.41,21l-.06,0c-1.68,1.53-3.11,3.38-3,5.59a5.5,5.5,0,0,0,.07,1A8.34,8.34,0,0,0,16.15,32,9.15,9.15,0,0,0,19,24.84Z"/><path class="cls-5" d="M38,20.7A14.36,14.36,0,0,1,52.69,6.37a16.21,16.21,0,0,1,8.67,2.22,1.53,1.53,0,0,1,.47,2.33l-.71.95a1.56,1.56,0,0,1-2.3.56A11.38,11.38,0,0,0,52.69,11a9.46,9.46,0,0,0-9.38,9.74,9.33,9.33,0,0,0,9.78,9.66,11.12,11.12,0,0,0,5.58-1.47V24H53.13a1.54,1.54,0,0,1-1.67-1.71v-.67A1.51,1.51,0,0,1,53.13,20h8.74a1.5,1.5,0,0,1,1.66,1.66v8a2.59,2.59,0,0,1-1.22,2.25A15.51,15.51,0,0,1,52.93,35C44.14,35,38,28.5,38,20.7Z"/><path class="cls-5" d="M89.22,15.72c0,5-3.31,9-9.07,9H73.38v8.5A1.55,1.55,0,0,1,71.66,35h-2A1.54,1.54,0,0,1,68,33.24V8.09A1.55,1.55,0,0,1,69.7,6.37H80.15C86,6.37,89.22,10.7,89.22,15.72Zm-5.51,0c0-2.78-1.72-4.78-4.45-4.78H73.38v9.52h5.88C82,20.42,83.71,18.42,83.71,15.68Z"/><path class="cls-5" d="M91.8,20.66c0-7.72,5.7-14.29,15.08-14.29a14.29,14.29,0,0,1,8.31,2.42,1.53,1.53,0,0,1,.4,2.33L115,12c-.6.91-1.35,1-2.34.44A11.93,11.93,0,0,0,106.88,11a9.35,9.35,0,0,0-9.77,9.7,9.34,9.34,0,0,0,9.77,9.7,11.93,11.93,0,0,0,5.74-1.51c1-.55,1.74-.47,2.34.44l.63.91c.59.91.55,1.62-.2,2.18A14.32,14.32,0,0,1,106.88,35C97.5,35,91.8,28.38,91.8,20.66Z"/></svg>