<svg id="Capa_1" data-name="Capa 1" xmlns="http://www.w3.org/2000/svg" viewBox="0 0 140 125"><defs><style>.cls-1{fill:none;stroke:#000;stroke-width:5px;}.cls-2{fill:#29abe2;}</style></defs><circle class="cls-1" cx="61.63" cy="50.65" r="35.74"/><path d="M91.06,85.35l5.24-5.24a2,2,0,0,0,0-2.84l-3.9-3.9-8.08,8.08,3.89,3.9A2,2,0,0,0,91.06,85.35Z"/><rect x="93.57" y="78.1" width="4.44" height="13.55" transform="translate(-31.96 92.6) rotate(-45)"/><rect x="102.66" y="82.38" width="12.4" height="31.06" rx="4.17" transform="translate(-37.35 105.65) rotate(-45)"/><path class="cls-2" d="M43.37,53.89a2.78,2.78,0,0,0,2.52-4h0l7.49-7.49h0a2.75,2.75,0,0,0,1.2.28,2.8,2.8,0,0,0,1.95-.79l6.51,3.26c0,.11,0,.22,0,.34a2.82,2.82,0,0,0,2.81,2.81,2.74,2.74,0,0,0,2-.83,2.79,2.79,0,0,0,.83-2,2.84,2.84,0,0,0-.29-1.22s.06,0,.08-.07l7.43-9.29a2.75,2.75,0,0,0,1.2.28,2.81,2.81,0,0,0,2-4.79,2.86,2.86,0,0,0-4,0,2.79,2.79,0,0,0-.83,2,2.84,2.84,0,0,0,.29,1.22.5.5,0,0,0-.08.07L67,42.94a2.88,2.88,0,0,0-3.14.5l-6.51-3.26c0-.11,0-.22,0-.34a2.78,2.78,0,0,0-.82-2,2.86,2.86,0,0,0-4,0,2.74,2.74,0,0,0-.54,3.19h0l-7.49,7.49s0,0,0,0a2.89,2.89,0,0,0-3.19.53,2.82,2.82,0,0,0,2,4.8Z"/><rect x="73.43" y="40.42" width="7.44" height="26.96"/><rect x="62.15" y="51.97" width="7.44" height="15.41"/><rect x="50.86" y="47.85" width="7.44" height="19.53"/><rect x="39.57" y="56.44" width="7.44" height="10.94"/></svg>