<svg id="Capa_1" data-name="Capa 1" xmlns="http://www.w3.org/2000/svg" viewBox="0 0 177 156"><defs><style>.cls-1{fill:#c2e4f9;}.cls-2{fill:#29abe2;}.cls-3,.cls-4,.cls-5,.cls-6{fill:none;stroke-linecap:round;}.cls-3{stroke:#104170;stroke-width:2px;}.cls-3,.cls-4{stroke-miterlimit:10;}.cls-4,.cls-5,.cls-6{stroke:#000;}.cls-4,.cls-5{stroke-width:3px;}.cls-5,.cls-6{stroke-linejoin:round;}</style></defs><path class="cls-1" d="M99.54,119.07h0c0,3.57-6,6.47-10.72,6.47s-10.72-2.9-10.72-6.47H99.54Z"/><polygon class="cls-1" points="100.19 113.64 99.54 119.07 78.1 119.07 77.44 113.64 100.19 113.64"/><polygon class="cls-1" points="100.84 108.23 100.19 113.64 77.44 113.64 76.79 108.23 76.79 108.23 100.84 108.23"/><polygon class="cls-1" points="101.5 102.8 100.84 108.23 76.79 108.23 76.79 108.23 76.13 102.8 101.5 102.8"/><path class="cls-2" d="M107.05,65.2v5.36a17.41,17.41,0,0,1-4.87.19l-1.9,4.57a17.81,17.81,0,0,1,3.32,3.59L99.82,82.7a17.52,17.52,0,0,1-3.58-3.33l-4.57,1.9a17.93,17.93,0,0,1-.18,4.89H86.14A17.93,17.93,0,0,1,86,81.27l-4.57-1.9a17.52,17.52,0,0,1-3.58,3.33L74,78.91a17.81,17.81,0,0,1,3.32-3.59l-1.89-4.57a17.48,17.48,0,0,1-4.88-.19V65.2A17.86,17.86,0,0,1,75.46,65l1.89-4.58A17.76,17.76,0,0,1,74,56.86l3.78-3.79a17.76,17.76,0,0,1,3.58,3.32L86,54.5a17.93,17.93,0,0,1,.18-4.89h5.35a17.93,17.93,0,0,1,.18,4.89l4.57,1.89a17.76,17.76,0,0,1,3.58-3.32l3.78,3.79a17.76,17.76,0,0,1-3.32,3.58l1.9,4.58A17.79,17.79,0,0,1,107.05,65.2ZM95.33,67.88l-3.26-5.65H85.56L82.3,67.88l3.26,5.66h6.51Z"/><line class="cls-3" x1="88.82" y1="25.98" x2="88.82" y2="34.6"/><line class="cls-3" x1="72.02" y1="29.33" x2="75.31" y2="37.29"/><line class="cls-3" x1="57.79" y1="38.86" x2="63.87" y2="44.95"/><line class="cls-3" x1="48.28" y1="53.12" x2="56.22" y2="56.42"/><line class="cls-3" x1="44.93" y1="69.95" x2="53.53" y2="69.95"/><line class="cls-3" x1="48.28" y1="86.77" x2="56.22" y2="83.48"/><line class="cls-3" x1="129.36" y1="86.77" x2="121.42" y2="83.48"/><line class="cls-3" x1="132.7" y1="69.95" x2="124.1" y2="69.95"/><line class="cls-3" x1="129.36" y1="53.12" x2="121.42" y2="56.42"/><line class="cls-3" x1="119.84" y1="38.86" x2="113.77" y2="44.95"/><line class="cls-3" x1="105.61" y1="29.33" x2="102.32" y2="37.29"/><path class="cls-4" d="M76.13,102.8v-.14a12.42,12.42,0,0,0-4.94-9.89,29.36,29.36,0,1,1,35.23,0,12.39,12.39,0,0,0-4.93,9.89v.14"/><polygon class="cls-5" points="99.54 119.07 78.1 119.07 77.44 113.64 76.79 108.23 76.13 102.8 101.5 102.8 100.84 108.23 100.19 113.64 99.54 119.07"/><polyline class="cls-5" points="100.85 108.23 100.84 108.23 76.79 108.23"/><line class="cls-5" x1="100.19" y1="113.64" x2="77.44" y2="113.64"/><path class="cls-5" d="M99.54,119.07h0c0,3.57-6,6.47-10.72,6.47s-10.72-2.9-10.72-6.47h0"/><path class="cls-6" d="M86,54.5a17.93,17.93,0,0,1,.18-4.89h5.35a17.93,17.93,0,0,1,.18,4.89l4.57,1.89a17.76,17.76,0,0,1,3.58-3.32l3.78,3.79a17.76,17.76,0,0,1-3.32,3.58l1.9,4.58a17.79,17.79,0,0,1,4.87.18v5.36a17.41,17.41,0,0,1-4.87.19l-1.9,4.57a17.81,17.81,0,0,1,3.32,3.59L99.82,82.7a17.52,17.52,0,0,1-3.58-3.33l-4.57,1.9a17.93,17.93,0,0,1-.18,4.89H86.14A17.93,17.93,0,0,1,86,81.27l-4.57-1.9a17.52,17.52,0,0,1-3.58,3.33L74,78.91a17.81,17.81,0,0,1,3.32-3.59l-1.89-4.57a17.48,17.48,0,0,1-4.88-.19V65.2A17.86,17.86,0,0,1,75.46,65l1.89-4.58A17.76,17.76,0,0,1,74,56.86l3.78-3.79a17.76,17.76,0,0,1,3.58,3.32Z"/><polygon class="cls-6" points="92.08 62.23 85.56 62.23 82.3 67.89 85.56 73.54 92.08 73.54 95.33 67.89 92.08 62.23"/></svg>