<svg id="Capa_1" data-name="Capa 1" xmlns="http://www.w3.org/2000/svg" viewBox="0 0 171 98"><defs><style>.cls-1{fill:#29abe2;fill-rule:evenodd;}</style></defs><path d="M24.07,8.1H92.23a8.67,8.67,0,0,1,8.64,8.64V32.55h36.24A7.48,7.48,0,0,1,144.56,40V67.51A7.48,7.48,0,0,1,137.11,75H125.54L112.22,86.06a1.65,1.65,0,0,1-2.82-1.16V75H80.64a7.46,7.46,0,0,1-7.44-7.44V58.59h-16V70.94a1.65,1.65,0,0,1-2.82,1.16L38.16,58.59H24.07A8.67,8.67,0,0,1,15.43,50V16.74A8.67,8.67,0,0,1,24.07,8.1Zm76.8,27.75V50a8.67,8.67,0,0,1-8.64,8.64H76.5v8.92a4.17,4.17,0,0,0,4.14,4.14h30.41a1.65,1.65,0,0,1,1.65,1.65v8.08L123.9,72a1.67,1.67,0,0,1,1-.38h12.16a4.17,4.17,0,0,0,4.15-4.14V40a4.17,4.17,0,0,0-4.15-4.14ZM92.23,11.4H24.07a5.36,5.36,0,0,0-5.34,5.34V50a5.36,5.36,0,0,0,5.34,5.34H38.75a1.67,1.67,0,0,1,1,.38L53.88,67.42V56.94a1.65,1.65,0,0,1,1.65-1.65h36.7A5.36,5.36,0,0,0,97.57,50V16.74a5.36,5.36,0,0,0-5.34-5.34Z"/><path class="cls-1" d="M40.75,29a4.37,4.37,0,1,1-4.37,4.36A4.37,4.37,0,0,1,40.75,29Z"/><path class="cls-1" d="M58.15,29a4.37,4.37,0,1,1-4.37,4.36A4.37,4.37,0,0,1,58.15,29Z"/><path class="cls-1" d="M75.55,29a4.37,4.37,0,1,1-4.37,4.36A4.36,4.36,0,0,1,75.55,29Z"/><path class="cls-1" d="M123.3,50.13a3.62,3.62,0,1,0,3.62,3.62,3.62,3.62,0,0,0-3.62-3.62Z"/><path class="cls-1" d="M108.88,50.13a3.62,3.62,0,1,0,3.62,3.62,3.62,3.62,0,0,0-3.62-3.62Z"/></svg>