<svg id="Capa_1" data-name="Capa 1" xmlns="http://www.w3.org/2000/svg" viewBox="0 0 194 40"><polygon points="16.69 18.84 16.69 11.13 21.7 14.99 26.71 18.84 21.7 22.69 16.69 26.55 16.69 18.84"/><polygon points="46.16 18.84 46.16 11.13 51.17 14.99 56.18 18.84 51.17 22.69 46.16 26.55 46.16 18.84"/><polygon points="75.64 18.84 75.64 11.13 80.64 14.99 85.65 18.84 80.64 22.69 75.64 26.55 75.64 18.84"/><polygon points="105.11 18.84 105.11 11.13 110.12 14.99 115.13 18.84 110.12 22.69 105.11 26.55 105.11 18.84"/><polygon points="134.58 18.84 134.58 11.13 139.59 14.99 144.6 18.84 139.59 22.69 134.58 26.55 134.58 18.84"/><polygon points="164.06 18.84 164.06 11.13 169.06 14.99 174.07 18.84 169.06 22.69 164.06 26.55 164.06 18.84"/></svg>