<svg id="Capa_1" data-name="Capa 1" xmlns="http://www.w3.org/2000/svg" viewBox="0 0 92 134"><defs><style>.cls-1{fill:#29abe2;}</style></defs><polygon points="82.13 29.87 82.13 123.55 9.44 123.55 9.44 29.87 20.79 29.87 20.79 32.84 12.5 32.84 12.5 120.57 79.07 120.57 79.07 32.84 70.77 32.84 70.77 29.87 82.13 29.87"/><path d="M75.25,112.32a.5.5,0,1,1,0,1h-29a.94.94,0,0,1-.5-.74v-29a.5.5,0,0,1,1,0v28.72Z"/><polygon points="73.6 87.78 73.6 106.44 48.61 106.44 52.91 97.51 58.04 101.97 61.52 94.19 65.82 96.68 73.6 87.78"/><rect x="50.76" y="74.56" width="20.03" height="1.99"/><rect x="50.76" y="69.48" width="20.03" height="1.99"/><rect x="50.76" y="64.07" width="20.03" height="1.99"/><rect x="50.76" y="58.23" width="20.03" height="1.99"/><rect x="50.76" y="52.82" width="20.03" height="1.99"/><path d="M67.09,29.86v8a2.6,2.6,0,0,1-2.45,2.72H26.92a2.6,2.6,0,0,1-2.45-2.72v-8a2.6,2.6,0,0,1,2.45-2.71H64.64A2.6,2.6,0,0,1,67.09,29.86Z"/><path d="M54,23.48A8.25,8.25,0,0,1,53.54,26H49a4.08,4.08,0,1,0-7.27-2.55A4.11,4.11,0,0,0,42.59,26H38a8.25,8.25,0,0,1-.4-2.55,8.17,8.17,0,0,1,16.33,0Z"/><path class="cls-1" d="M32.8,51.38A12.09,12.09,0,1,1,20.71,63.47H32.8Z"/><rect x="20.01" y="109.52" width="20.03" height="1.99"/><rect x="20.01" y="104.44" width="20.03" height="1.99"/><rect x="20.01" y="99.03" width="20.03" height="1.99"/><rect x="20.01" y="93.2" width="20.03" height="1.99"/><rect x="20.01" y="87.78" width="20.03" height="1.99"/><path class="cls-1" d="M30.79,49.5V61.59H18.7A12.09,12.09,0,0,1,30.79,49.5Z"/></svg>